<svg xmlns="http://www.w3.org/2000/svg" xmlns:xlink="http://www.w3.org/1999/xlink" width="300" zoomAndPan="magnify" viewBox="0 0 224.87999 74.999997" height="100" preserveAspectRatio="xMidYMid meet" version="1.0"><defs><g/><clipPath id="fad5e8a799"><path d="M 196.519531 10.820312 L 211.511719 10.820312 L 211.511719 25.8125 L 196.519531 25.8125 Z M 196.519531 10.820312 " clip-rule="nonzero"/></clipPath></defs><path stroke-linecap="butt" transform="matrix(0.523423, 0, 0, 0.523423, 20.877775, 22.295146)" fill="none" stroke-linejoin="miter" d="M 31.279148 9.414011 C 13.621942 9.414011 2.621638 18.675462 2.621638 29.608601 C 2.621638 34.474407 5.487389 38.870052 10.950227 38.870052 C 17.413092 38.870052 20.875875 33.138549 19.674349 30.213095 C 18.211622 30.213095 17.151891 28.877237 17.151891 27.071217 C 17.151891 20.936719 23.808792 18.332169 31.54035 18.332169 C 38.94354 18.332169 43.145149 20.675517 43.145149 26.399557 C 43.145149 32.131059 39.137575 35.272937 35.413591 35.272937 C 32.480674 35.272937 31.816477 34.063948 32.741875 31.399695 L 32.54784 31.869858 C 32.935911 30.213095 33.749366 28.145874 34.741931 25.198031 C 35.413591 23.00394 34.615062 21.600916 31.816477 21.600916 C 29.816421 21.600916 28.346231 22.466612 27.487998 24.80996 C 26.346176 27.668249 25.077484 31.071328 23.935661 34.063948 C 20.816172 42.071633 15.816033 45.474712 12.136827 45.474712 C 9.017337 45.474712 6.539657 43.474657 6.539657 40.526814 C 6.539657 40.071577 6.08442 39.728284 5.547092 39.728284 C 0.211123 39.728284 -3.318826 45.198585 -3.318826 50.795755 C -3.318826 56.266056 -0.176948 61.79606 7.614313 61.79606 C 16.27127 61.79606 23.353555 54.004799 27.211871 43.803024 L 27.405907 43.325399 L 27.211871 43.803024 L 27.555164 43.131364 C 27.943235 42.526869 28.480563 42.205965 29.144761 42.205965 C 30.808986 42.205965 31.54035 44.138854 35.95092 44.138854 C 47.876623 44.138854 53.802161 34.668443 53.802161 26.399557 C 53.802161 15.533584 46.607931 9.414011 31.279148 9.414011 Z M 64.071102 22.936774 C 67.533885 22.936774 70.265304 21.600916 70.675763 17.466473 C 71.00413 13.33203 68.265248 12.063338 64.862169 12.063338 C 61.205351 12.063338 58.212731 13.466362 58.212731 18.197837 C 58.212731 21.735248 60.876984 22.936774 64.071102 22.936774 Z M 56.682838 58.997475 C 65.272628 58.997475 69.53394 45.929949 71.668328 42.332834 C 72.332525 41.131308 69.735438 39.131253 68.675707 40.743238 C 67.339849 42.743293 66.071157 44.056762 64.071102 44.056762 C 62.280008 44.056762 61.071019 42.937328 61.071019 40.743238 C 61.071019 37.146123 64.071102 32.735553 64.071102 28.660813 C 64.071102 26.533889 63.205406 25.668193 61.809845 25.668193 C 58.011233 25.668193 55.279814 31.071328 52.205101 40.743238 C 51.212537 43.929893 50.540876 47.527008 50.540876 50.668886 C 50.540876 55.340657 52.205101 58.997475 56.682838 58.997475 Z M 78.802854 58.997475 C 86.601577 58.997475 93.728641 53.273436 99.601938 42.4 C 100.333301 41.131308 97.669048 39.131253 96.609317 40.743238 C 90.34795 49.80319 77.213257 49.265862 77.213257 40.332779 C 77.213257 36.996865 78.937186 33.869913 81.929806 33.869913 C 83.929861 33.869913 84.661225 34.99681 84.661225 36.198336 C 84.661225 38.60885 83.131332 38.870052 83.131332 40.004411 C 83.131332 40.870107 84.273155 41.862672 86.601577 41.862672 C 89.467328 41.862672 93.400273 39.601415 93.400273 33.869913 C 93.400273 29.541435 90.601688 25.668193 84.205988 25.668193 C 73.675846 25.668193 67.26522 36.668498 67.26522 45.997115 C 67.26522 52.930143 70.795169 58.997475 78.802854 58.997475 Z M 99.609401 58.997475 C 104.005045 58.997475 104.863277 55.340657 104.863277 51.937578 L 104.863277 46.877736 C 104.863277 42.810459 108.527558 42.467166 108.99772 45.870246 C 110.266412 55.06453 112.057507 58.997475 116.662112 58.997475 C 126.072821 58.997475 130.871461 46.123984 133.005849 42.4 C 133.737212 41.131308 131.535659 38.399889 129.99084 40.743238 C 128.334077 43.325399 124.998164 44.138854 121.139848 44.138854 C 117.460642 44.138854 115.132219 42.870162 115.132219 40.676072 C 115.132219 39.064087 116.065081 37.728229 118.341263 37.661063 C 123.789175 37.661063 126.58776 35.399806 126.58776 30.862367 C 126.58776 28.205577 124.736963 25.668193 120.729389 25.668193 C 115.930748 25.668193 112.870962 29.39964 110.139543 35.593841 C 109.341014 37.407324 106.072266 37.407324 106.460337 35.205771 C 107.729029 28.810071 111.064942 22.742739 113.460531 17.339604 C 115.39342 13.070829 114.594891 11.070774 111.863472 11.070774 C 106.460337 11.070774 103.40055 21.272549 96.661558 40.743238 C 95.3257 44.534388 94.400301 48.728534 94.400301 52.131613 C 94.400301 56.072021 95.736159 58.997475 99.609401 58.997475 Z M 159.521509 58.997475 C 164.260446 58.997475 168.260557 54.668997 170.932273 49.265862 L 171.193474 49.265862 C 170.394945 54.803329 172.327834 58.997475 176.917514 58.997475 C 184.320704 58.997475 187.984985 48.601665 191.253732 42.4 C 191.925392 41.131308 189.253676 39.131253 188.261112 40.743238 C 186.925254 42.870162 185.253566 44.138854 182.992309 44.138854 C 180.059392 44.138854 179.328028 41.474601 181.589285 36.608795 C 183.052012 32.735553 184.798329 30.668332 184.798329 28.145874 C 184.798329 26.660758 184.193835 25.668193 182.45498 25.668193 C 179.328028 25.668193 178.857866 28.205577 176.656312 28.205577 C 174.917458 28.205577 175.193585 25.668193 169.857616 25.668193 C 158.402075 25.668193 152.655647 39.668581 152.655647 48.944958 C 152.655647 54.863032 154.998996 58.997475 159.521509 58.997475 Z M 166.193336 45.198585 C 164.126114 45.198585 162.857422 43.862727 162.857422 41.601471 C 162.857422 38.676016 165.051513 35.399806 168.521758 35.399806 C 170.656146 35.399806 171.984541 36.735664 171.984541 38.937218 C 171.984541 41.735803 169.663581 45.198585 166.193336 45.198585 Z M 262.904972 6.533334 C 261.248209 6.533334 258.904861 7.279624 254.10622 7.279624 C 249.516541 7.279624 246.717956 6.742295 240.516291 6.742295 C 222.985955 6.742295 213.321508 14.80222 213.321508 24.272632 C 213.321508 29.138439 216.187259 33.534083 221.650097 33.534083 C 228.112962 33.534083 231.583208 27.802581 230.374219 24.869663 C 228.911492 24.869663 227.851761 23.541268 227.851761 21.735248 C 227.851761 17.466473 233.172804 15.675379 239.113267 15.675379 C 246.717956 15.675379 248.718011 19.145624 254.979379 19.145624 C 261.785538 19.145624 265.509521 14.406687 265.509521 9.264753 C 265.509521 7.473659 264.91249 6.533334 262.904972 6.533334 Z M 252.053925 31.399695 C 250.568809 31.399695 248.374718 31.466861 245.508967 31.526564 C 246.441829 28.810071 247.382153 25.99656 248.307552 23.00394 C 249.038916 20.802387 248.180683 19.406826 245.247766 19.406826 C 243.24771 19.406826 241.784983 20.265058 240.904362 22.608407 C 239.784928 25.406992 238.643105 28.60111 237.523671 31.675822 L 234.717623 31.675822 C 231.986204 31.675822 230.784678 33.138549 230.784678 35.078902 C 230.784678 36.474463 231.448876 37.534194 233.045935 37.534194 C 233.650429 37.534194 234.247461 37.60136 234.919121 37.661063 C 231.583208 43.19853 227.053232 45.474712 223.590449 45.474712 C 219.784373 45.474712 217.239527 43.474657 217.239527 40.526814 C 217.239527 40.071577 216.78429 39.728284 216.246962 39.728284 C 210.910993 39.728284 207.381045 45.131419 207.381045 50.60172 C 207.381045 56.139187 211.045325 61.79606 220.321702 61.79606 C 228.650291 61.79606 235.777354 56.266056 240.837196 44.138854 C 241.576022 42.467166 242.24022 40.743238 242.844714 38.996921 C 244.583568 39.190956 246.441829 39.340214 248.583679 39.340214 C 253.240525 39.340214 255.307746 36.13117 255.307746 33.869913 C 255.307746 32.474352 254.703252 31.399695 252.053925 31.399695 Z M 260.904916 58.997475 C 269.905166 58.997475 274.450068 46.064281 276.576992 42.4 C 277.308356 41.131308 274.644103 39.131253 273.569446 40.743238 C 272.166422 42.870162 270.50966 44.138854 268.181237 44.138854 C 264.181126 44.138854 264.710992 40.332779 265.837889 36.474463 C 267.367782 30.862367 269.972332 24.742794 273.636612 17.339604 C 275.696371 13.137995 274.770972 11.070774 272.039553 11.070774 C 266.636418 11.070774 263.576632 21.272549 256.837639 40.743238 C 255.501781 44.534388 254.576383 48.728534 254.576383 52.131613 C 254.576383 56.072021 256.173442 58.997475 260.904916 58.997475 Z M 285.435447 22.936774 C 288.898229 22.936774 291.637111 21.600916 292.040108 17.466473 C 292.368475 13.33203 289.629593 12.063338 286.233976 12.063338 C 282.569696 12.063338 279.577076 13.466362 279.577076 18.197837 C 279.577076 21.735248 282.241329 22.936774 285.435447 22.936774 Z M 278.047182 58.997475 C 286.636973 58.997475 290.905748 45.929949 293.032672 42.332834 C 293.704333 41.131308 291.099783 39.131253 290.040052 40.743238 C 288.704194 42.743293 287.435502 44.056762 285.435447 44.056762 C 283.644352 44.056762 282.442827 42.937328 282.442827 40.743238 C 282.442827 37.146123 285.435447 32.735553 285.435447 28.660813 C 285.435447 26.533889 284.569751 25.668193 283.17419 25.668193 C 279.38304 25.668193 276.644158 31.071328 273.569446 40.743238 C 272.576882 43.929893 271.912684 47.527008 271.912684 50.668886 C 271.912684 55.340657 273.569446 58.997475 278.047182 58.997475 Z M 300.174661 58.997475 C 307.965922 58.997475 315.092985 53.273436 320.973745 42.4 C 321.705109 41.131308 319.033393 39.131253 317.973662 40.743238 C 311.712295 49.80319 298.577602 49.265862 298.577602 40.332779 C 298.577602 36.996865 300.301531 33.869913 303.294151 33.869913 C 305.301669 33.869913 306.033033 34.99681 306.033033 36.198336 C 306.033033 38.60885 304.50314 38.870052 304.50314 40.004411 C 304.50314 40.870107 305.637499 41.862672 307.965922 41.862672 C 310.831673 41.862672 314.772081 39.601415 314.772081 33.869913 C 314.772081 29.541435 311.973496 25.668193 305.577796 25.668193 C 295.047654 25.668193 288.629565 36.668498 288.629565 45.997115 C 288.629565 52.930143 292.166977 58.997475 300.174661 58.997475 Z M 320.973745 58.997475 C 325.36939 58.997475 326.227622 55.340657 326.227622 51.937578 L 326.227622 46.877736 C 326.227622 42.810459 329.891903 42.467166 330.362065 45.870246 C 331.630757 55.06453 333.421852 58.997475 338.026457 58.997475 C 347.437166 58.997475 352.235806 46.123984 354.370194 42.4 C 355.101557 41.131308 352.907466 38.399889 351.355185 40.743238 C 349.698422 43.325399 346.362509 44.138854 342.504193 44.138854 C 338.824986 44.138854 336.496564 42.870162 336.496564 40.676072 C 336.496564 39.064087 337.429425 37.728229 339.705608 37.661063 C 345.160983 37.661063 347.959568 35.399806 347.959568 30.862367 C 347.959568 28.205577 346.101308 25.668193 342.101197 25.668193 C 337.295093 25.668193 334.235307 29.39964 331.503888 35.593841 C 330.705358 37.407324 327.436611 37.407324 327.824682 35.205771 C 329.093373 28.810071 332.429287 22.742739 334.824876 17.339604 C 336.757765 13.070829 335.959235 11.070774 333.227816 11.070774 C 327.824682 11.070774 324.764895 21.272549 318.025903 40.743238 C 316.690045 44.534388 315.764646 48.728534 315.764646 52.131613 C 315.764646 56.072021 317.100504 58.997475 320.973745 58.997475 Z M 320.973745 58.997475 " stroke="#e3e3e3" stroke-width="2.416668" stroke-opacity="1" stroke-miterlimit="4"/><g fill="#f95959" fill-opacity="1"><g transform="translate(20.885953, 53.177103)"><g><path d="M 16.363281 -25.960938 C 7.117188 -25.960938 1.359375 -21.109375 1.359375 -15.386719 C 1.359375 -12.839844 2.859375 -10.539062 5.722656 -10.539062 C 9.105469 -10.539062 10.921875 -13.539062 10.292969 -15.074219 C 9.523438 -15.074219 8.96875 -15.769531 8.96875 -16.714844 C 8.96875 -19.921875 12.457031 -21.285156 16.503906 -21.285156 C 20.375 -21.285156 22.574219 -20.0625 22.574219 -17.0625 C 22.574219 -14.0625 20.480469 -12.421875 18.527344 -12.421875 C 16.992188 -12.421875 16.644531 -13.050781 17.132812 -14.445312 L 17.027344 -14.199219 C 17.238281 -15.074219 17.65625 -16.15625 18.179688 -17.691406 C 18.527344 -18.839844 18.109375 -19.574219 16.644531 -19.574219 C 15.597656 -19.574219 14.828125 -19.121094 14.375 -17.898438 C 13.78125 -16.398438 13.121094 -14.621094 12.527344 -13.050781 C 10.886719 -8.863281 8.269531 -7.082031 6.351562 -7.082031 C 4.710938 -7.082031 3.417969 -8.128906 3.417969 -9.664062 C 3.417969 -9.910156 3.175781 -10.082031 2.894531 -10.082031 C 0.105469 -10.082031 -1.746094 -7.222656 -1.746094 -4.292969 C -1.746094 -1.429688 -0.105469 1.464844 3.976562 1.464844 C 8.511719 1.464844 12.210938 -2.617188 14.234375 -7.957031 L 14.339844 -8.199219 L 14.234375 -7.957031 L 14.410156 -8.304688 C 14.621094 -8.617188 14.898438 -8.792969 15.246094 -8.792969 C 16.121094 -8.792969 16.503906 -7.78125 18.804688 -7.78125 C 25.050781 -7.78125 28.15625 -12.734375 28.15625 -17.0625 C 28.15625 -22.75 24.390625 -25.960938 16.363281 -25.960938 Z M 16.363281 -25.960938 "/></g></g></g><g fill="#f95959" fill-opacity="1"><g transform="translate(47.401949, 53.177103)"><g><path d="M 7.011719 -18.875 C 8.828125 -18.875 10.257812 -19.574219 10.46875 -21.738281 C 10.640625 -23.902344 9.210938 -24.5625 7.433594 -24.5625 C 5.511719 -24.5625 3.941406 -23.832031 3.941406 -21.355469 C 3.941406 -19.503906 5.339844 -18.875 7.011719 -18.875 Z M 3.140625 0 C 7.640625 0 9.875 -6.839844 10.992188 -8.722656 C 11.339844 -9.351562 9.980469 -10.398438 9.421875 -9.558594 C 8.722656 -8.511719 8.058594 -7.816406 7.011719 -7.816406 C 6.070312 -7.816406 5.441406 -8.410156 5.441406 -9.558594 C 5.441406 -11.445312 7.011719 -13.746094 7.011719 -15.875 C 7.011719 -16.992188 6.558594 -17.445312 5.828125 -17.445312 C 3.839844 -17.445312 2.40625 -14.621094 0.800781 -9.558594 C 0.277344 -7.886719 -0.0703125 -6 -0.0703125 -4.363281 C -0.0703125 -1.917969 0.800781 0 3.140625 0 Z M 3.140625 0 "/></g></g></g><g fill="#f95959" fill-opacity="1"><g transform="translate(55.984757, 53.177103)"><g><path d="M 6.140625 0 C 10.222656 0 13.957031 -3 17.027344 -8.6875 C 17.410156 -9.351562 16.015625 -10.398438 15.457031 -9.558594 C 12.175781 -4.816406 5.304688 -5.09375 5.304688 -9.769531 C 5.304688 -11.515625 6.210938 -13.152344 7.78125 -13.152344 C 8.828125 -13.152344 9.210938 -12.5625 9.210938 -11.933594 C 9.210938 -10.675781 8.410156 -10.539062 8.410156 -9.945312 C 8.410156 -9.492188 9.003906 -8.96875 10.222656 -8.96875 C 11.722656 -8.96875 13.78125 -10.152344 13.78125 -13.152344 C 13.78125 -15.421875 12.316406 -17.445312 8.96875 -17.445312 C 3.453125 -17.445312 0.105469 -11.6875 0.105469 -6.804688 C 0.105469 -3.175781 1.953125 0 6.140625 0 Z M 6.140625 0 "/></g></g></g><g fill="#f95959" fill-opacity="1"><g transform="translate(70.638333, 53.177103)"><g><path d="M 2.371094 0 C 4.675781 0 5.128906 -1.917969 5.128906 -3.699219 L 5.128906 -6.351562 C 5.128906 -8.480469 7.046875 -8.652344 7.292969 -6.875 C 7.957031 -2.058594 8.898438 0 11.304688 0 C 16.222656 0 18.738281 -6.734375 19.851562 -8.6875 C 20.238281 -9.351562 19.085938 -10.78125 18.28125 -9.558594 C 17.410156 -8.199219 15.667969 -7.78125 13.640625 -7.78125 C 11.722656 -7.78125 10.503906 -8.445312 10.503906 -9.59375 C 10.503906 -10.433594 10.992188 -11.128906 12.175781 -11.164062 C 15.039062 -11.164062 16.503906 -12.351562 16.503906 -14.722656 C 16.503906 -16.121094 15.527344 -17.445312 13.433594 -17.445312 C 10.921875 -17.445312 9.316406 -15.492188 7.886719 -12.246094 C 7.464844 -11.304688 5.757812 -11.304688 5.964844 -12.457031 C 6.628906 -15.804688 8.375 -18.980469 9.628906 -21.808594 C 10.640625 -24.039062 10.222656 -25.085938 8.792969 -25.085938 C 5.964844 -25.085938 4.363281 -19.75 0.835938 -9.558594 C 0.140625 -7.570312 -0.347656 -5.375 -0.347656 -3.59375 C -0.347656 -1.535156 0.347656 0 2.371094 0 Z M 2.371094 0 "/></g></g></g><g fill="#f95959" fill-opacity="1"><g transform="translate(88.117958, 53.177103)"><g/></g></g><g fill="#f95959" fill-opacity="1"><g transform="translate(100.678169, 53.177103)"><g><path d="M 3.699219 0 C 6.175781 0 8.269531 -2.269531 9.664062 -5.09375 L 9.804688 -5.09375 C 9.386719 -2.199219 10.398438 0 12.804688 0 C 16.679688 0 18.597656 -5.441406 20.308594 -8.6875 C 20.65625 -9.351562 19.261719 -10.398438 18.738281 -9.558594 C 18.039062 -8.445312 17.167969 -7.78125 15.980469 -7.78125 C 14.445312 -7.78125 14.0625 -9.175781 15.246094 -11.722656 C 16.015625 -13.746094 16.921875 -14.828125 16.921875 -16.15625 C 16.921875 -16.921875 16.609375 -17.445312 15.699219 -17.445312 C 14.0625 -17.445312 13.816406 -16.121094 12.664062 -16.121094 C 11.757812 -16.121094 11.898438 -17.445312 9.105469 -17.445312 C 3.105469 -17.445312 0.105469 -10.117188 0.105469 -5.269531 C 0.105469 -2.164062 1.324219 0 3.699219 0 Z M 7.1875 -7.222656 C 6.105469 -7.222656 5.441406 -7.921875 5.441406 -9.105469 C 5.441406 -10.640625 6.59375 -12.351562 8.410156 -12.351562 C 9.523438 -12.351562 10.222656 -11.652344 10.222656 -10.503906 C 10.222656 -9.035156 9.003906 -7.222656 7.1875 -7.222656 Z M 7.1875 -7.222656 "/></g></g></g><g fill="#f95959" fill-opacity="1"><g transform="translate(118.611356, 53.177103)"><g/></g></g><g fill="#f95959" fill-opacity="1"><g transform="translate(131.171567, 53.177103)"><g><path d="M 27.320312 -27.460938 C 26.449219 -27.460938 25.226562 -27.074219 22.714844 -27.074219 C 20.308594 -27.074219 18.839844 -27.355469 15.597656 -27.355469 C 6.421875 -27.355469 1.359375 -23.132812 1.359375 -18.179688 C 1.359375 -15.632812 2.859375 -13.328125 5.722656 -13.328125 C 9.105469 -13.328125 10.921875 -16.328125 10.292969 -17.863281 C 9.523438 -17.863281 8.96875 -18.5625 8.96875 -19.503906 C 8.96875 -21.738281 11.757812 -22.679688 14.863281 -22.679688 C 18.839844 -22.679688 19.886719 -20.863281 23.167969 -20.863281 C 26.726562 -20.863281 28.679688 -23.34375 28.679688 -26.027344 C 28.679688 -26.972656 28.367188 -27.460938 27.320312 -27.460938 Z M 21.632812 -14.445312 C 20.863281 -14.445312 19.714844 -14.410156 18.214844 -14.375 C 18.703125 -15.804688 19.191406 -17.269531 19.679688 -18.839844 C 20.0625 -19.992188 19.609375 -20.726562 18.074219 -20.726562 C 17.027344 -20.726562 16.257812 -20.273438 15.804688 -19.050781 C 15.210938 -17.585938 14.621094 -15.910156 14.027344 -14.304688 L 12.5625 -14.304688 C 11.128906 -14.304688 10.503906 -13.539062 10.503906 -12.527344 C 10.503906 -11.792969 10.851562 -11.234375 11.6875 -11.234375 C 12.003906 -11.234375 12.316406 -11.199219 12.664062 -11.164062 C 10.921875 -8.269531 8.546875 -7.082031 6.734375 -7.082031 C 4.746094 -7.082031 3.417969 -8.128906 3.417969 -9.664062 C 3.417969 -9.910156 3.175781 -10.082031 2.894531 -10.082031 C 0.105469 -10.082031 -1.746094 -7.257812 -1.746094 -4.394531 C -1.746094 -1.5 0.175781 1.464844 5.023438 1.464844 C 9.386719 1.464844 13.121094 -1.429688 15.769531 -7.78125 C 16.15625 -8.652344 16.503906 -9.558594 16.816406 -10.46875 C 17.726562 -10.363281 18.703125 -10.292969 19.816406 -10.292969 C 22.261719 -10.292969 23.34375 -11.96875 23.34375 -13.152344 C 23.34375 -13.886719 23.027344 -14.445312 21.632812 -14.445312 Z M 21.632812 -14.445312 "/></g></g></g><g fill="#f95959" fill-opacity="1"><g transform="translate(154.477731, 53.177103)"><g><path d="M 2.964844 0 C 7.675781 0 10.046875 -6.769531 11.164062 -8.6875 C 11.550781 -9.351562 10.152344 -10.398438 9.59375 -9.558594 C 8.863281 -8.445312 7.988281 -7.78125 6.769531 -7.78125 C 4.675781 -7.78125 4.953125 -9.769531 5.546875 -11.792969 C 6.351562 -14.722656 7.710938 -17.933594 9.628906 -21.808594 C 10.710938 -24.003906 10.222656 -25.085938 8.792969 -25.085938 C 5.964844 -25.085938 4.363281 -19.75 0.835938 -9.558594 C 0.140625 -7.570312 -0.347656 -5.375 -0.347656 -3.59375 C -0.347656 -1.535156 0.488281 0 2.964844 0 Z M 2.964844 0 "/></g></g></g><g fill="#f95959" fill-opacity="1"><g transform="translate(163.269881, 53.177103)"><g><path d="M 7.011719 -18.875 C 8.828125 -18.875 10.257812 -19.574219 10.46875 -21.738281 C 10.640625 -23.902344 9.210938 -24.5625 7.433594 -24.5625 C 5.511719 -24.5625 3.941406 -23.832031 3.941406 -21.355469 C 3.941406 -19.503906 5.339844 -18.875 7.011719 -18.875 Z M 3.140625 0 C 7.640625 0 9.875 -6.839844 10.992188 -8.722656 C 11.339844 -9.351562 9.980469 -10.398438 9.421875 -9.558594 C 8.722656 -8.511719 8.058594 -7.816406 7.011719 -7.816406 C 6.070312 -7.816406 5.441406 -8.410156 5.441406 -9.558594 C 5.441406 -11.445312 7.011719 -13.746094 7.011719 -15.875 C 7.011719 -16.992188 6.558594 -17.445312 5.828125 -17.445312 C 3.839844 -17.445312 2.40625 -14.621094 0.800781 -9.558594 C 0.277344 -7.886719 -0.0703125 -6 -0.0703125 -4.363281 C -0.0703125 -1.917969 0.800781 0 3.140625 0 Z M 3.140625 0 "/></g></g></g><g fill="#f95959" fill-opacity="1"><g transform="translate(171.852689, 53.177103)"><g><path d="M 6.140625 0 C 10.222656 0 13.957031 -3 17.027344 -8.6875 C 17.410156 -9.351562 16.015625 -10.398438 15.457031 -9.558594 C 12.175781 -4.816406 5.304688 -5.09375 5.304688 -9.769531 C 5.304688 -11.515625 6.210938 -13.152344 7.78125 -13.152344 C 8.828125 -13.152344 9.210938 -12.5625 9.210938 -11.933594 C 9.210938 -10.675781 8.410156 -10.539062 8.410156 -9.945312 C 8.410156 -9.492188 9.003906 -8.96875 10.222656 -8.96875 C 11.722656 -8.96875 13.78125 -10.152344 13.78125 -13.152344 C 13.78125 -15.421875 12.316406 -17.445312 8.96875 -17.445312 C 3.453125 -17.445312 0.105469 -11.6875 0.105469 -6.804688 C 0.105469 -3.175781 1.953125 0 6.140625 0 Z M 6.140625 0 "/></g></g></g><g fill="#f95959" fill-opacity="1"><g transform="translate(186.506265, 53.177103)"><g><path d="M 2.371094 0 C 4.675781 0 5.128906 -1.917969 5.128906 -3.699219 L 5.128906 -6.351562 C 5.128906 -8.480469 7.046875 -8.652344 7.292969 -6.875 C 7.957031 -2.058594 8.898438 0 11.304688 0 C 16.222656 0 18.738281 -6.734375 19.851562 -8.6875 C 20.238281 -9.351562 19.085938 -10.78125 18.28125 -9.558594 C 17.410156 -8.199219 15.667969 -7.78125 13.640625 -7.78125 C 11.722656 -7.78125 10.503906 -8.445312 10.503906 -9.59375 C 10.503906 -10.433594 10.992188 -11.128906 12.175781 -11.164062 C 15.039062 -11.164062 16.503906 -12.351562 16.503906 -14.722656 C 16.503906 -16.121094 15.527344 -17.445312 13.433594 -17.445312 C 10.921875 -17.445312 9.316406 -15.492188 7.886719 -12.246094 C 7.464844 -11.304688 5.757812 -11.304688 5.964844 -12.457031 C 6.628906 -15.804688 8.375 -18.980469 9.628906 -21.808594 C 10.640625 -24.039062 10.222656 -25.085938 8.792969 -25.085938 C 5.964844 -25.085938 4.363281 -19.75 0.835938 -9.558594 C 0.140625 -7.570312 -0.347656 -5.375 -0.347656 -3.59375 C -0.347656 -1.535156 0.347656 0 2.371094 0 Z M 2.371094 0 "/></g></g></g><g clip-path="url(#fad5e8a799)"><path fill="#e3e3e3" d="M 211.476562 18.296875 C 205.867188 19.332031 205.03125 20.167969 204 25.777344 C 202.964844 20.167969 202.128906 19.332031 196.519531 18.296875 C 202.128906 17.265625 202.964844 16.429688 204 10.820312 C 205.03125 16.429688 205.867188 17.265625 211.476562 18.296875 Z M 211.476562 18.296875 " fill-opacity="1" fill-rule="nonzero"/></g></svg>