<svg xmlns="http://www.w3.org/2000/svg" xmlns:xlink="http://www.w3.org/1999/xlink" width="40" zoomAndPan="magnify" viewBox="0 0 30 30.000001" height="40" preserveAspectRatio="xMidYMid meet" version="1.0"><defs><clipPath id="fdaf523712"><path d="M 1.101562 0 L 24 0 L 24 23 L 1.101562 23 Z M 1.101562 0 " clip-rule="nonzero"/></clipPath><clipPath id="88d6e0d98e"><path d="M 18 17 L 28.679688 17 L 28.679688 27.582031 L 18 27.582031 Z M 18 17 " clip-rule="nonzero"/></clipPath></defs><g clip-path="url(#fdaf523712)"><path fill="#f95959" d="M 12.578125 22.195312 C 12.144531 22.195312 11.710938 22.167969 11.28125 22.117188 C 10.851562 22.0625 10.421875 21.984375 10.003906 21.878906 C 9.582031 21.773438 9.167969 21.644531 8.761719 21.488281 C 8.355469 21.332031 7.960938 21.148438 7.578125 20.945312 C 7.195312 20.742188 6.824219 20.511719 6.46875 20.261719 C 6.117188 20.011719 5.777344 19.742188 5.453125 19.449219 C 5.132812 19.160156 4.828125 18.847656 4.546875 18.519531 C 4.261719 18.191406 4 17.84375 3.757812 17.484375 C 3.515625 17.121094 3.296875 16.75 3.101562 16.359375 C 2.90625 15.972656 2.734375 15.574219 2.589844 15.164062 C 2.441406 14.753906 2.324219 14.339844 2.226562 13.914062 C 2.132812 13.492188 2.0625 13.0625 2.019531 12.628906 C 1.976562 12.199219 1.960938 11.765625 1.972656 11.328125 C 1.984375 10.894531 2.019531 10.464844 2.085938 10.035156 C 2.148438 9.605469 2.238281 9.179688 2.355469 8.761719 C 2.46875 8.34375 2.609375 7.933594 2.777344 7.53125 C 2.945312 7.128906 3.132812 6.738281 3.347656 6.363281 C 3.5625 5.984375 3.796875 5.621094 4.058594 5.269531 C 4.316406 4.921875 4.597656 4.589844 4.894531 4.277344 C 5.195312 3.960938 5.511719 3.664062 5.847656 3.390625 C 6.183594 3.113281 6.535156 2.859375 6.902344 2.628906 C 7.269531 2.394531 7.652344 2.1875 8.042969 2 C 8.4375 1.816406 8.839844 1.65625 9.253906 1.519531 C 9.664062 1.382812 10.085938 1.273438 10.511719 1.1875 C 10.9375 1.101562 11.367188 1.046875 11.800781 1.011719 C 12.234375 0.980469 12.667969 0.976562 13.101562 0.996094 C 13.535156 1.019531 13.964844 1.066406 14.394531 1.140625 C 14.820312 1.214844 15.242188 1.316406 15.660156 1.441406 C 16.074219 1.570312 16.480469 1.722656 16.878906 1.898438 C 17.277344 2.074219 17.660156 2.273438 18.035156 2.496094 C 18.40625 2.722656 18.761719 2.964844 19.105469 3.234375 C 19.449219 3.5 19.773438 3.789062 20.078125 4.097656 C 20.820312 4.835938 21.441406 5.671875 21.933594 6.59375 C 22.429688 7.519531 22.78125 8.496094 22.984375 9.527344 C 23.191406 10.554688 23.242188 11.589844 23.136719 12.632812 C 23.035156 13.679688 22.78125 14.683594 22.382812 15.652344 C 21.980469 16.621094 21.445312 17.511719 20.78125 18.324219 C 20.113281 19.132812 19.347656 19.832031 18.472656 20.414062 C 17.601562 20.996094 16.664062 21.4375 15.660156 21.742188 C 14.65625 22.046875 13.628906 22.195312 12.578125 22.195312 Z M 12.578125 3.320312 C 12.261719 3.320312 11.949219 3.339844 11.632812 3.375 C 11.320312 3.410156 11.007812 3.460938 10.699219 3.535156 C 10.390625 3.605469 10.085938 3.695312 9.789062 3.800781 C 9.492188 3.90625 9.199219 4.027344 8.917969 4.167969 C 8.632812 4.308594 8.355469 4.460938 8.089844 4.632812 C 7.824219 4.804688 7.570312 4.988281 7.324219 5.191406 C 7.078125 5.390625 6.847656 5.605469 6.625 5.832031 C 6.40625 6.058594 6.199219 6.296875 6.003906 6.546875 C 5.8125 6.796875 5.632812 7.058594 5.472656 7.332031 C 5.308594 7.601562 5.160156 7.882812 5.03125 8.167969 C 4.898438 8.457031 4.785156 8.75 4.6875 9.054688 C 4.589844 9.355469 4.511719 9.660156 4.449219 9.96875 C 4.386719 10.28125 4.339844 10.59375 4.316406 10.910156 C 4.289062 11.222656 4.28125 11.539062 4.289062 11.855469 C 4.300781 12.171875 4.328125 12.488281 4.375 12.800781 C 4.421875 13.113281 4.484375 13.421875 4.566406 13.726562 C 4.648438 14.035156 4.746094 14.335938 4.863281 14.628906 C 4.976562 14.921875 5.109375 15.210938 5.257812 15.488281 C 5.410156 15.769531 5.574219 16.039062 5.753906 16.296875 C 5.933594 16.558594 6.125 16.808594 6.335938 17.046875 C 6.542969 17.285156 6.765625 17.511719 7 17.722656 C 7.234375 17.933594 7.480469 18.132812 7.734375 18.320312 C 7.992188 18.503906 8.261719 18.671875 8.535156 18.824219 C 8.8125 18.980469 9.097656 19.117188 9.390625 19.238281 C 9.683594 19.359375 9.980469 19.464844 10.285156 19.550781 C 10.589844 19.636719 10.898438 19.707031 11.210938 19.757812 C 11.519531 19.8125 11.835938 19.84375 12.152344 19.859375 C 12.46875 19.875 12.785156 19.875 13.097656 19.851562 C 13.414062 19.832031 13.730469 19.792969 14.039062 19.738281 C 14.351562 19.679688 14.660156 19.605469 14.960938 19.515625 C 15.265625 19.421875 15.5625 19.316406 15.851562 19.1875 C 16.140625 19.0625 16.421875 18.921875 16.699219 18.761719 C 16.972656 18.605469 17.234375 18.429688 17.488281 18.242188 C 17.746094 18.054688 17.988281 17.851562 18.21875 17.636719 C 18.449219 17.417969 18.667969 17.191406 18.871094 16.949219 C 19.074219 16.707031 19.265625 16.457031 19.441406 16.191406 C 19.617188 15.929688 19.777344 15.65625 19.921875 15.375 C 20.066406 15.09375 20.195312 14.804688 20.304688 14.507812 C 20.417969 14.214844 20.511719 13.910156 20.589844 13.605469 C 20.664062 13.296875 20.722656 12.988281 20.765625 12.671875 C 20.808594 12.359375 20.828125 12.042969 20.835938 11.726562 C 20.839844 11.410156 20.828125 11.097656 20.796875 10.78125 C 20.765625 10.464844 20.714844 10.152344 20.648438 9.84375 C 20.582031 9.535156 20.496094 9.230469 20.394531 8.929688 C 20.292969 8.632812 20.175781 8.339844 20.039062 8.054688 C 19.902344 7.765625 19.753906 7.488281 19.585938 7.222656 C 19.417969 6.953125 19.234375 6.695312 19.039062 6.445312 C 18.839844 6.199219 18.632812 5.964844 18.40625 5.738281 C 17.632812 4.964844 16.742188 4.371094 15.734375 3.953125 C 14.722656 3.53125 13.671875 3.324219 12.578125 3.320312 Z M 12.578125 3.320312 " fill-opacity="1" fill-rule="nonzero"/></g><g clip-path="url(#88d6e0d98e)"><path fill="#f95959" d="M 27.613281 27.796875 C 27.292969 27.792969 27.019531 27.679688 26.792969 27.453125 L 18.429688 19.097656 C 18.320312 18.988281 18.238281 18.859375 18.179688 18.71875 C 18.117188 18.574219 18.089844 18.425781 18.089844 18.269531 C 18.089844 18.117188 18.117188 17.96875 18.179688 17.824219 C 18.238281 17.683594 18.320312 17.554688 18.429688 17.445312 C 18.539062 17.335938 18.664062 17.253906 18.808594 17.195312 C 18.953125 17.136719 19.101562 17.105469 19.253906 17.105469 C 19.410156 17.105469 19.558594 17.136719 19.703125 17.195312 C 19.84375 17.253906 19.96875 17.335938 20.078125 17.445312 L 28.4375 25.808594 C 28.601562 25.976562 28.707031 26.175781 28.753906 26.40625 C 28.796875 26.636719 28.777344 26.859375 28.6875 27.074219 C 28.597656 27.292969 28.453125 27.46875 28.257812 27.597656 C 28.0625 27.730469 27.847656 27.796875 27.613281 27.796875 Z M 27.613281 27.796875 " fill-opacity="1" fill-rule="nonzero"/></g></svg>